<svg xmlns="http://www.w3.org/2000/svg" viewBox="0 0 35 35" width="35" height="35">
	<style>
		tspan { white-space:pre }
		.shp0 { fill: none } 
		.shp1 { fill: #434343 } 
	</style>
	<g id="Header">
		<g id="Header">
			<g id="Pinterest">
				<path id="Holder" class="shp0" d="M17.5 0C27.16 0 35 7.83 35 17.5C35 27.16 27.16 35 17.5 35C7.83 35 0 27.16 0 17.5C0 7.83 7.83 0 17.5 0Z" />
				<path id="Pinterest-icon" class="shp1" d="M18.24 9.5C13.38 9.5 10.8 12.66 10.8 16.11C10.8 17.71 11.68 19.7 13.09 20.33C13.3 20.43 13.42 20.39 13.47 20.19C13.51 20.03 13.69 19.3 13.78 18.95C13.81 18.84 13.8 18.74 13.71 18.64C13.24 18.09 12.87 17.09 12.87 16.15C12.87 13.74 14.75 11.41 17.95 11.41C20.72 11.41 22.66 13.24 22.66 15.85C22.66 18.8 21.12 20.85 19.12 20.85C18.01 20.85 17.19 19.96 17.45 18.87C17.77 17.57 18.39 16.18 18.39 15.24C18.39 14.4 17.92 13.7 16.96 13.7C15.84 13.7 14.92 14.84 14.92 16.36C14.92 17.32 15.26 17.98 15.26 17.98C15.26 17.98 14.15 22.55 13.94 23.4C13.59 24.85 13.99 27.19 14.02 27.39C14.04 27.5 14.17 27.53 14.23 27.44C14.34 27.3 15.69 25.35 16.07 23.94C16.21 23.42 16.77 21.34 16.77 21.34C17.14 22.02 18.21 22.59 19.35 22.59C22.75 22.59 25.2 19.56 25.2 15.8C25.19 12.2 22.15 9.5 18.24 9.5Z" />
			</g>
		</g>
	</g>
</svg>